<?xml version="1.0" encoding="iso-8859-1"?>
<!-- Generator: Adobe Illustrator 19.0.0, SVG Export Plug-In . SVG Version: 6.00 Build 0)  -->
<svg xmlns="http://www.w3.org/2000/svg" xmlns:xlink="http://www.w3.org/1999/xlink" version="1.1" id="Capa_1" x="0px" y="0px" viewBox="0 0 414.28 414.28" style="enable-background:new 0 0 414.28 414.28;" xml:space="preserve" width="512" height="512">
<g>
	<path style="fill:#FFCC75;" d="M207.018,69.69c43.08,0,78,34.92,78,78s-34.92,78-78,78c-43.07,0-78-34.92-78-78   S163.948,69.69,207.018,69.69z"/>
	<polygon style="fill:#FFFFFF;" points="251.798,147.69 184.878,186.33 184.878,109.06  "/>
	<path style="fill:#185F8D;" d="M83.838,256.57l10,70.905l-10,70.905c-21.59,0-39.09-17.51-39.09-39.1v-63.62   C44.748,274.07,62.248,256.57,83.838,256.57z"/>
	<path style="fill:#185F8D;" d="M369.538,295.66v63.62c0,21.59-17.51,39.1-39.1,39.1l-10-70.905l10-70.905   C352.028,256.57,369.538,274.07,369.538,295.66z"/>
	<path style="fill:#6DA8D6;" d="M143.838,256.57v142.71c0,8.25-6.75,15-15,15h-30c-8.25,0-15-6.75-15-15v-0.9V256.57   c0-8.25,6.75-15,15-15h30C137.088,241.57,143.838,248.32,143.838,256.57z"/>
	<path style="fill:#6DA8D6;" d="M330.438,398.38v0.9c0,8.25-6.75,15-15,15h-30c-8.25,0-15-6.75-15-15V256.57c0-8.25,6.75-15,15-15   h30c8.25,0,15,6.75,15,15V398.38z"/>
	<path style="fill:#6DA8D6;" d="M393.388,96.78l-24.35,17.05c-35.78-50.89-94.96-84.14-161.9-84.14s-126.11,33.25-161.9,84.14   l-24.34-17.05c7.5-10.65,15.98-20.75,25.38-30.15C89.238,23.66,146.368,0,207.138,0s117.9,23.66,160.87,66.63   C377.408,76.03,385.878,86.13,393.388,96.78z"/>
	<path style="fill:#274B6D;" d="M399.535,334.973c-4.142,0-7.5-3.358-7.5-7.5v-53.865c0-0.587,0.069-1.172,0.206-1.743   c3.453-14.447,5.203-29.375,5.203-44.369c0-104.934-85.37-190.304-190.304-190.304S16.836,122.562,16.836,227.496   c0,14.994,1.75,29.922,5.203,44.369c0.137,0.571,0.206,1.156,0.206,1.743v53.865c0,4.142-3.358,7.5-7.5,7.5s-7.5-3.358-7.5-7.5   v-52.989c-3.589-15.317-5.409-31.121-5.409-46.988c0-113.205,92.099-205.304,205.304-205.304s205.304,92.099,205.304,205.304   c0,15.867-1.819,31.67-5.409,46.988v52.989C407.035,331.615,403.677,334.973,399.535,334.973z"/>
</g>















</svg>
